PathFileType	4	(X/Y/Z)	D:\TRACE\spotREDO_2-26-24\spot_justBody_Motion_3_3-platform.trc
DataRate	CameraRate	NumFrames	NumMarkers	Units	OrigDataRate	OrigDataStartFrame	OrigNumFrames
100.00	100.00	      42	5	mm	100.00	3501	      7000
Frame#	Time	Left_Front			Right_Front			Left_Aft			Right_Aft			Post			
		X1	Y1	Z1	X2	Y2	Z2	X3	Y3	Z3	X4	Y4	Z4	X5	Y5	Z5	

3501	35.000	-683.37103	12.54730	-571.29468	731.49310	19.26225	-486.54636	-754.54590	-12.83301	647.29279	815.80200	-5.28890	650.91925	25.75381	650.62653	-960.52228	
3502	35.010	-683.81409	12.94782	-571.20618	730.90149	19.54640	-486.43228	-755.03046	-13.12099	647.42255	815.31140	-6.07773	651.04877	25.51651	651.62830	-959.59521	
3503	35.020	-684.25946	13.44993	-571.03729	730.37018	20.05101	-486.41101	-755.83124	-13.66940	647.40570	814.91962	-6.29727	651.28461	24.90016	652.30304	-958.93561	
3504	35.030	-685.01544	14.11660	-570.68622	729.94360	20.40594	-486.44312	-756.16040	-14.20581	647.72253	814.29541	-6.76695	651.09906	24.24176	652.91998	-958.42023	
3505	35.040	-685.35950	14.44237	-570.65472	729.52960	20.70659	-486.15332	-756.46808	-14.70434	647.94458	813.43268	-7.54171	651.07764	23.49698	653.79388	-957.91315	
3506	35.050	-686.10071	14.90851	-570.66620	728.87000	21.20755	-486.21024	-757.29877	-15.04656	647.84210	813.14691	-7.86919	651.36432	23.28107	654.52655	-957.37115	
3507	35.060	-686.48969	15.26705	-570.49872	728.28033	21.50879	-485.86359	-757.60309	-15.74061	648.04095	812.84204	-8.06216	651.82080	22.74718	655.31647	-956.77417	
3508	35.070	-687.02716	15.92548	-570.38568	727.76196	21.90207	-485.70172	-758.20520	-16.09625	648.11060	812.05261	-8.75050	651.73834	22.08676	655.97168	-956.33868	
3509	35.080	-687.60699	16.43528	-570.32690	727.30334	22.33100	-485.59808	-758.73407	-16.68188	648.19067	811.33923	-9.29266	651.85828	21.41652	656.63110	-955.55115	
3510	35.090	-688.21814	16.76459	-570.02673	726.59436	22.65587	-485.44965	-759.20642	-17.10780	648.28931	810.81696	-9.63233	652.02374	20.83235	657.48456	-954.93713	
3511	35.100	-688.66364	16.90782	-569.90265	726.06458	22.90291	-485.24036	-759.84955	-17.63653	648.44891	810.49573	-9.74392	652.13885	20.50691	658.14587	-954.41345	
3512	35.110	-689.24976	17.30671	-569.75702	725.80029	23.11607	-484.98172	-760.40472	-17.90244	648.41675	809.76599	-10.37649	652.17584	19.85709	658.74762	-953.73914	
3513	35.120	-690.06976	18.01551	-569.63263	724.89868	23.63384	-485.16629	-761.15399	-18.18371	648.53680	808.93219	-11.04969	652.25342	19.11038	659.46448	-953.12933	
3514	35.130	-690.61584	18.23513	-569.60907	724.17590	24.02089	-485.03909	-761.90021	-18.73367	648.64441	808.55908	-11.53851	652.16479	18.55469	660.13208	-952.35956	
3515	35.140	-691.27069	18.59087	-569.45966	723.53827	24.24408	-484.88559	-762.21692	-19.14975	648.82031	808.04395	-11.51155	652.47894	18.12162	660.61017	-951.82465	
3516	35.150	-691.72614	18.90988	-569.40131	723.11230	24.62304	-484.91177	-762.80981	-19.46881	648.79431	807.50043	-11.97239	652.49481	17.39173	661.30023	-951.47784	
3517	35.160	-692.28857	19.19137	-569.33807	722.63623	24.93402	-484.76492	-763.54431	-19.97290	648.91010	806.59418	-12.63255	652.56525	16.69714	661.99225	-951.03308	
3518	35.170	-692.88513	19.69836	-569.16034	721.81903	25.16417	-484.50391	-764.11182	-20.25996	648.93579	805.95306	-12.97647	652.75714	16.12023	662.43945	-950.60767	
3519	35.180	-693.60712	20.03102	-569.05634	720.83533	25.61712	-484.54584	-764.71423	-20.64676	649.05011	805.58698	-13.06271	652.84796	15.63311	662.84467	-950.32709	
3520	35.190	-694.54291	20.27241	-568.91663	720.44977	25.82476	-484.48962	-765.30469	-20.81366	649.21210	805.03101	-13.40632	652.93341	14.70168	663.50507	-950.07288	
3521	35.200	-695.09937	20.46862	-568.87067	719.99121	25.90117	-484.33502	-766.04065	-21.20554	649.10944	804.21509	-13.87126	652.88837	13.96182	663.93066	-949.63330	
3522	35.210	-695.64331	20.65672	-568.79169	719.34888	26.01444	-484.18817	-766.75842	-21.58767	649.19849	803.24298	-14.22872	652.99854	13.50432	664.30292	-949.26935	
3523	35.220	-696.35406	21.03776	-568.74402	718.51685	26.44025	-484.21637	-767.43115	-21.70181	649.28613	802.74780	-14.42437	653.10651	12.85401	664.84930	-948.91217	
3524	35.230	-697.05566	21.48779	-568.77063	717.81915	26.68408	-484.10803	-768.05011	-21.81697	649.55518	802.56567	-14.52161	653.09119	12.17896	665.23505	-948.41711	
3525	35.240	-697.67004	21.84016	-568.63837	717.21301	26.85404	-483.89526	-769.06433	-22.29842	649.43854	801.52765	-14.90822	653.08698	11.90650	665.80823	-947.60815	
3526	35.250	-698.19421	21.94353	-568.50250	716.62549	26.82755	-483.75153	-769.42120	-22.56820	649.52020	800.70892	-15.35669	653.08685	11.19187	666.04181	-947.26154	
3527	35.260	-699.21545	22.14692	-568.48572	715.87079	27.29096	-483.90887	-770.14520	-22.93278	649.51074	799.99451	-15.66504	653.30157	10.35751	666.28113	-946.99408	
3528	35.270	-699.73804	22.26671	-568.45447	715.20551	27.51540	-483.90149	-770.87366	-23.04166	649.62067	799.44556	-15.74308	653.52783	9.63941	666.75043	-946.66815	
3529	35.280	-700.24371	22.43513	-568.37524	714.44379	27.57931	-483.66800	-771.43561	-23.35407	649.61224	798.77673	-15.90979	653.48212	8.77156	667.14880	-946.44171	
3530	35.290	-701.28613	22.74975	-568.18262	713.91357	27.66234	-483.55090	-772.17572	-23.52931	649.61420	797.92975	-16.19619	653.43079	7.97010	667.52905	-946.19946	
3531	35.300	-701.92395	22.99883	-568.27887	713.22375	28.00784	-483.62640	-772.81561	-23.67903	649.57184	797.21368	-16.43712	653.44226	7.20555	667.71448	-946.07678	
3532	35.310	-702.57751	23.10435	-568.24542	712.32135	28.24552	-483.63229	-773.57745	-23.93180	649.78162	796.54169	-16.37708	653.45789	6.63095	667.95197	-945.90155	
3533	35.320	-703.23151	23.08125	-568.19446	711.34985	28.24347	-483.66714	-774.36102	-24.09862	649.77142	795.92834	-16.65360	653.53162	6.13359	668.12360	-945.76801	
3534	35.330	-704.12488	23.32060	-568.20581	710.95331	28.20904	-483.43259	-775.02911	-24.19290	649.90161	795.19885	-16.85103	653.52057	4.99944	668.30865	-945.66327	
3535	35.340	-704.95465	23.46465	-568.27283	710.17084	28.42703	-483.56512	-775.93335	-24.18030	649.91516	794.57117	-16.90652	653.51727	4.60127	668.51654	-945.33081	
3536	35.350	-705.12476	23.47184	-568.14886	709.28308	28.56599	-483.50238	-776.56897	-24.23817	649.89850	793.66235	-17.03535	653.55072	4.17946	668.69916	-945.14313	
3537	35.360	-706.15759	23.47773	-568.07941	708.61847	28.74732	-483.53851	-777.19598	-24.33344	649.90497	792.88184	-17.17043	653.53583	3.20201	668.87427	-945.25952	
3538	35.370	-707.00085	23.47464	-567.99048	708.07501	28.61668	-483.39896	-777.97064	-24.46424	649.86566	792.45093	-17.11509	653.53168	2.32022	669.00763	-945.19684	
3539	35.380	-707.60394	23.66625	-568.02545	707.23517	28.63232	-483.41187	-778.49756	-24.24847	649.97424	791.54706	-17.21467	653.64270	1.45792	669.12476	-945.03876	
3540	35.390	-708.51483	23.90317	-568.05444	706.69006	28.61710	-483.26428	-779.47943	-24.45660	649.85345	790.84351	-17.31163	653.65259	0.79479	669.24158	-944.87927	
3541	35.400	-708.92310	23.93036	-568.05298	705.69202	29.09126	-483.59171	-780.15607	-24.73933	649.87085	790.21356	-17.35692	653.66333	0.12933	669.34613	-944.76422	
3542	35.410	-709.80212	23.93880	-567.94183	705.04633	29.08850	-483.54657	-780.78992	-24.79439	649.90088	789.35724	-17.48042	653.76532	-0.28509	669.27124	-944.62939	
